<svg width="154" height="23" viewBox="0 0 154 23" fill="none" xmlns="http://www.w3.org/2000/svg">
<path d="M5.32711 17.6519H6.49581C7.83664 17.6519 8.79697 17.4807 9.37679 17.1384C9.95661 16.7961 10.2465 16.2466 10.2465 15.4899C10.2465 14.7332 9.95661 14.1837 9.37679 13.8414C8.79697 13.4991 7.83664 13.3279 6.49581 13.3279H5.32711V17.6519ZM5.32711 9.38231H6.30555C7.97254 9.38231 8.80603 8.72471 8.80603 7.40951C8.80603 6.09431 7.97254 5.43671 6.30555 5.43671H5.32711V9.38231ZM0 1.38301H7.9363C9.82072 1.38301 11.2522 1.83342 12.2306 2.73424C13.209 3.63506 13.6983 4.93225 13.6983 6.62579C13.6983 7.65273 13.508 8.50851 13.1275 9.19314C12.7651 9.85975 12.2034 10.4273 11.4424 10.8957C12.2034 11.0398 12.8467 11.265 13.3721 11.5713C13.9157 11.8596 14.3506 12.2199 14.6767 12.6523C15.021 13.0847 15.2656 13.5711 15.4106 14.1116C15.5555 14.6521 15.628 15.2286 15.628 15.8412C15.628 16.7961 15.4559 17.6429 15.1116 18.3815C14.7854 19.1202 14.3143 19.7418 13.6983 20.2462C13.1003 20.7507 12.3665 21.129 11.4968 21.3813C10.627 21.6335 9.64858 21.7596 8.56142 21.7596H0V1.38301Z" fill="white"/>
<path d="M23.3067 11.5713C23.3067 12.382 23.4607 13.1297 23.7688 13.8144C24.0768 14.499 24.4935 15.0935 25.019 15.598C25.5445 16.1024 26.1515 16.4988 26.84 16.7871C27.5467 17.0573 28.2896 17.1924 29.0687 17.1924C29.8478 17.1924 30.5817 17.0573 31.2702 16.7871C31.9769 16.4988 32.5929 16.1024 33.1184 15.598C33.662 15.0935 34.0878 14.499 34.3958 13.8144C34.7038 13.1297 34.8578 12.382 34.8578 11.5713C34.8578 10.7606 34.7038 10.0129 34.3958 9.32826C34.0878 8.64364 33.662 8.04909 33.1184 7.54463C32.5929 7.04017 31.9769 6.65282 31.2702 6.38257C30.5817 6.09431 29.8478 5.95018 29.0687 5.95018C28.2896 5.95018 27.5467 6.09431 26.84 6.38257C26.1515 6.65282 25.5445 7.04017 25.019 7.54463C24.4935 8.04909 24.0768 8.64364 23.7688 9.32826C23.4607 10.0129 23.3067 10.7606 23.3067 11.5713ZM17.735 11.5713C17.735 10.0579 18.0159 8.65265 18.5776 7.35546C19.1393 6.04026 19.9184 4.89622 20.915 3.92333C21.9115 2.95044 23.0984 2.19375 24.4754 1.65325C25.8706 1.09474 27.4017 0.81549 29.0687 0.81549C30.7176 0.81549 32.2396 1.09474 33.6348 1.65325C35.03 2.19375 36.2259 2.95044 37.2224 3.92333C38.2371 4.89622 39.0253 6.04026 39.587 7.35546C40.1487 8.65265 40.4296 10.0579 40.4296 11.5713C40.4296 13.0847 40.1487 14.499 39.587 15.8142C39.0253 17.1114 38.2371 18.2464 37.2224 19.2193C36.2259 20.1922 35.03 20.9579 33.6348 21.5164C32.2396 22.0569 30.7176 22.3271 29.0687 22.3271C27.4017 22.3271 25.8706 22.0569 24.4754 21.5164C23.0984 20.9579 21.9115 20.1922 20.915 19.2193C19.9184 18.2464 19.1393 17.1114 18.5776 15.8142C18.0159 14.499 17.735 13.0847 17.735 11.5713Z" fill="white"/>
<path d="M49.1216 1.38301V17.2735H55.5087V21.7596H43.7945V1.38301H49.1216Z" fill="white"/>
<path d="M63.587 17.2735H64.8101C65.7342 17.2735 66.5586 17.1294 67.2834 16.8411C68.0081 16.5529 68.6151 16.1565 69.1044 15.652C69.6117 15.1476 69.9922 14.553 70.2459 13.8684C70.5177 13.1658 70.6536 12.4001 70.6536 11.5713C70.6536 10.7606 70.5177 10.0039 70.2459 9.30124C69.9741 8.5986 69.5845 7.99505 69.0772 7.49058C68.588 6.98612 67.981 6.58976 67.2562 6.3015C66.5314 6.01324 65.716 5.8691 64.8101 5.8691H63.587V17.2735ZM58.2599 1.38301H66.1418C67.537 1.38301 68.8416 1.66226 70.0556 2.22077C71.2878 2.77928 72.3568 3.52697 73.2628 4.46382C74.1869 5.38266 74.9116 6.46365 75.4371 7.70678C75.9626 8.9319 76.2253 10.2201 76.2253 11.5713C76.2253 12.9045 75.9626 14.1927 75.4371 15.4358C74.9298 16.661 74.214 17.7419 73.2899 18.6788C72.384 19.6157 71.3149 20.3633 70.0828 20.9218C68.8688 21.4804 67.5552 21.7596 66.1418 21.7596H58.2599V1.38301Z" fill="white"/>
<path d="M92.2631 1.38554V18.8698H98.2881V21.7596H89.1709V1.38554H92.2631Z" fill="white"/>
<path d="M103.61 12.9581L96.9212 1.38554H100.478L105.163 9.52725L109.86 1.38554H113.417L106.702 12.9581V21.7596H103.61V12.9581Z" fill="white"/>
<path d="M115.793 21.7596V0L130.736 15.5445V1.38554H133.828V23L118.885 7.49512V21.7596H115.793Z" fill="white"/>
<path d="M141.844 9.51406L149.82 1.38554H153.947L144.684 10.6093L154 21.7596H149.859L142.481 12.6942L141.844 13.3276V21.7596H138.752V1.38554H141.844V9.51406Z" fill="white"/>
</svg>
