<svg width="27" height="20" viewBox="0 0 27 20" fill="none" xmlns="http://www.w3.org/2000/svg">
<g opacity="0.5">
<path d="M22.3743 1.63912C20.7351 0.87953 18.9894 0.319829 17.1504 0C16.9238 0.399786 16.6573 0.946161 16.4841 1.38593C14.5384 1.09275 12.6061 1.09275 10.7005 1.38593C10.5139 0.946161 10.2474 0.399786 10.0209 0C8.18184 0.319829 6.43611 0.87953 4.79699 1.63912C1.49208 6.62313 0.599228 11.4872 1.03899 16.2713C3.23782 17.9104 5.35669 18.8966 7.4489 19.5496C7.96862 18.8433 8.42172 18.0837 8.8215 17.2974C8.06191 17.0176 7.34229 16.6578 6.66266 16.2447C6.84922 16.1114 7.02246 15.9648 7.1957 15.8315C11.3668 17.7772 15.8844 17.7772 20.0022 15.8315C20.1754 15.9781 20.3487 16.1114 20.5352 16.2447C19.8556 16.6578 19.1227 17.0042 18.3764 17.2974C18.7762 18.0837 19.2293 18.8433 19.749 19.5496C21.8412 18.8966 23.9734 17.9104 26.1589 16.2713C26.6786 10.7143 25.2661 5.90351 22.4009 1.63912H22.3743ZM9.3812 13.3395C8.12854 13.3395 7.10242 12.1802 7.10242 10.7543C7.10242 9.32835 8.10189 8.16897 9.3812 8.16897C10.6605 8.16897 11.6733 9.32835 11.66 10.7543C11.66 12.1668 10.6605 13.3395 9.3812 13.3395ZM17.79 13.3395C16.5374 13.3395 15.5113 12.1802 15.5113 10.7543C15.5113 9.32835 16.5107 8.16897 17.79 8.16897C19.0694 8.16897 20.0822 9.32835 20.0688 10.7543C20.0688 12.1668 19.0694 13.3395 17.79 13.3395Z" fill="white"/>
</g>
</svg>
