<svg width="20" height="21" viewBox="0 0 20 21" fill="none" xmlns="http://www.w3.org/2000/svg">
<g opacity="0.5">
<path d="M19.9111 6.39592C19.899 5.56427 19.7452 4.7392 19.4508 3.96138C18.9355 2.63315 17.8864 1.58287 16.5581 1.06872C15.7902 0.779782 14.9783 0.624877 14.1566 0.607299C13.0997 0.560058 12.7646 0.546875 10.0818 0.546875C7.39895 0.546875 7.05509 0.546875 6.00591 0.607299C5.18524 0.624877 4.37336 0.779782 3.60542 1.06872C2.27719 1.58287 1.22692 2.63315 0.712762 3.96138C0.423825 4.72932 0.267821 5.54119 0.252441 6.36186C0.2052 7.41983 0.190918 7.75491 0.190918 10.4377C0.190918 13.1206 0.190918 13.4633 0.252441 14.5136C0.26892 15.3354 0.423825 16.1462 0.712762 16.9163C1.22801 18.2434 2.27719 19.2937 3.60652 19.8079C4.37116 20.1067 5.18304 20.2759 6.007 20.3022C7.06497 20.3495 7.40005 20.3638 10.0829 20.3638C12.7657 20.3638 13.1096 20.3638 14.1588 20.3022C14.9794 20.2857 15.7913 20.1308 16.5603 19.8419C17.8886 19.3267 18.9377 18.2764 19.453 16.9492C19.7419 16.1802 19.8968 15.3694 19.9133 14.5466C19.9606 13.4897 19.9748 13.1546 19.9748 10.4707C19.9726 7.78787 19.9726 7.4473 19.9111 6.39592ZM10.0752 15.5112C7.26932 15.5112 4.99627 13.2381 4.99627 10.4322C4.99627 7.62637 7.26932 5.35333 10.0752 5.35333C12.8789 5.35333 15.1541 7.62637 15.1541 10.4322C15.1541 13.2381 12.8789 15.5112 10.0752 15.5112ZM15.3562 6.34978C14.7004 6.34978 14.1719 5.82024 14.1719 5.16547C14.1719 4.51069 14.7004 3.98116 15.3562 3.98116C16.0099 3.98116 16.5395 4.51069 16.5395 5.16547C16.5395 5.82024 16.0099 6.34978 15.3562 6.34978Z" fill="white"/>
<path d="M10.0755 13.7311C11.8976 13.7311 13.3747 12.254 13.3747 10.432C13.3747 8.60989 11.8976 7.13281 10.0755 7.13281C8.25345 7.13281 6.77637 8.60989 6.77637 10.432C6.77637 12.254 8.25345 13.7311 10.0755 13.7311Z" fill="white"/>
</g>
</svg>
